<svg version="1.1" xmlns="http://www.w3.org/2000/svg" width="400" height="398" viewBox="0 0 400 398">
<path d="M0 0 C0.33 0 0.66 0 1 0 C-3.75942977 57.51040096 -36.4125806 120.15658556 -79.97265625 157.70019531 C-115.30502494 187.02469977 -156.12664722 195.06410185 -200.62670898 199.60571289 C-211.41364906 200.71029324 -211.41364906 200.71029324 -222 203 C-222.66491455 203.18014648 -223.3298291 203.36029297 -224.01489258 203.54589844 C-242.7315415 208.82279909 -256.25639901 217.05342603 -268 233 C-268.75539063 234.01835937 -269.51078125 235.03671875 -270.2890625 236.0859375 C-279.48272236 248.96879708 -286.17371119 263.46857395 -293.29150391 277.55615234 C-299.63501729 290.06568088 -305.11910637 299.22190345 -319 304 C-329.39042896 305.8865304 -339.35190078 302.09850638 -347.875 296.3125 C-357.09834964 289.11961438 -361.56055388 279.29787785 -364 268 C-365.18289374 249.4076937 -363.52488839 230.56599597 -354.3359375 214 C-352.67032745 210.25968269 -352.60367772 206.89182033 -352.5625 202.875 C-351.76541477 180.24806453 -344.90199752 158.72243232 -334 139 C-333.65066406 138.36465332 -333.30132812 137.72930664 -332.94140625 137.07470703 C-312.4773328 100.33494879 -278.09124087 74.22247639 -238 62 C-234.28962288 60.97438887 -230.56290213 60.05461286 -226.8125 59.1875 C-225.97122559 58.99260986 -225.12995117 58.79771973 -224.26318359 58.59692383 C-209.60873306 55.42109305 -195.24493663 54.66367025 -180.3125 54.75 C-179.41715546 54.75177246 -178.52181091 54.75354492 -177.59933472 54.75537109 C-165.23337757 54.78389473 -153.00997418 55.24866563 -140.68408203 56.28369141 C-125.81567945 57.46507486 -110.90315553 57.17776037 -96 57 C-96.32234619 58.10303467 -96.64469238 59.20606934 -96.97680664 60.3425293 C-99.21829847 68.3548865 -98.5451172 74.50779758 -94.4921875 81.80078125 C-91.28546629 86.52691748 -87.41140322 89.16156168 -82 91 C-74.9381184 91.90780541 -68.78956931 91.3326755 -63 87 C-58.54739588 82.81514713 -55.40562866 78.57163935 -54.69921875 72.3515625 C-54.66161068 63.60141742 -56.34501789 58.82497841 -62 52 C-62 51.34 -62 50.68 -62 50 C-60.91203125 49.5153125 -59.8240625 49.030625 -58.703125 48.53125 C-36.45261594 38.45271958 -18.21182949 23.90214501 -3.43945312 4.41918945 C-2.31145492 2.93192299 -1.15824518 1.46383386 0 0 Z " fill="#000000" transform="translate(371,77)"/>
<path d="M0 0 C28.68767345 -1.67927845 58.14287152 7.01063932 83 21 C84.57007812 21.84304687 84.57007812 21.84304687 86.171875 22.703125 C117.10061185 39.85014491 142.51922255 69.71114285 152.5 103.8125 C154.14989138 109.70021723 154.14989138 109.70021723 153 112 C147.61054354 107.66589338 142.27812505 103.30905266 137.1875 98.625 C132.72991869 94.5630202 128.0683659 90.84511029 123.30664062 87.15234375 C119.53088087 84.21971482 115.83764019 81.21435048 112.1875 78.125 C104.66340945 71.81511453 96.85097674 65.8953974 89 60 C88.25862793 59.44296387 87.51725586 58.88592773 86.75341797 58.31201172 C62.52379963 40.16207265 37.55149271 23.22093709 11.4309082 7.90527344 C7.37060944 5.50864282 3.59417482 3.08072127 0 0 Z " fill="#747474" transform="translate(34,19)"/>
<path d="M0 0 C1.69140625 2.046875 1.69140625 2.046875 3.5625 4.75 C4.49255859 6.07257813 4.49255859 6.07257813 5.44140625 7.421875 C8.73441771 12.86896163 8.59604126 18.78043905 8 25 C6.1911225 31.63639132 1.55713885 36.17105889 -4 40 C-9.77886123 42.79622318 -16.10144913 43.11482533 -22.28125 41.34765625 C-28.71336913 38.4655721 -32.46736782 33.70765018 -35.875 27.6875 C-37.74252324 21.56617381 -37.643327 16.46176339 -36.03125 10.29296875 C-34 7 -34 7 -32.18212891 6.22509766 C-29.82589984 5.76528111 -27.51740992 5.51072493 -25.125 5.3125 C-23.40923628 5.11188411 -21.69436348 4.90350169 -19.98046875 4.6875 C-18.71468994 4.53087891 -18.71468994 4.53087891 -17.42333984 4.37109375 C-12.90553547 3.67926797 -8.69292818 2.23950551 -4.37109375 0.76953125 C-2 0 -2 0 0 0 Z " fill="#EFEFEF" transform="translate(309,127)"/>
</svg>
